<?xml version="1.0" standalone="no"?><!DOCTYPE svg PUBLIC "-//W3C//DTD SVG 1.1//EN" "http://www.w3.org/Graphics/SVG/1.1/DTD/svg11.dtd"><svg class="icon" width="200px" height="200.00px" viewBox="0 0 1024 1024" version="1.1" xmlns="http://www.w3.org/2000/svg"><path fill="#333333" d="M160 384a178.88 178.88 0 0 0 36.48 109.76l236.16 296.32a96 96 0 0 0 160 0l235.84-296A180.48 180.48 0 0 0 864 384a160 160 0 1 0-320 0 32 32 0 0 1-64 0 160 160 0 1 0-320 0z m768 0h-64a32 32 0 0 1 64 0 246.72 246.72 0 0 1-50.24 148.8L641.6 829.12a160 160 0 0 1-259.2 0L146.24 533.44A244.16 244.16 0 0 1 96 385.92v-4.8a224 224 0 0 1 416-112A224 224 0 0 1 928 380.8v5.44a32 32 0 0 1-64-2.24 568.96 568.96 0 0 1 64 0z" /></svg>