<?xml version="1.0" standalone="no"?><!DOCTYPE svg PUBLIC "-//W3C//DTD SVG 1.1//EN" "http://www.w3.org/Graphics/SVG/1.1/DTD/svg11.dtd"><svg class="icon" width="200px" height="200.00px" viewBox="0 0 1024 1024" version="1.1" xmlns="http://www.w3.org/2000/svg"><path fill="#333333" d="M775.88707555 99.99473779c-16.67527111-10.84984889-39.3216-6.18951111-50.31708444 10.70421334-10.84984889 16.89372445-6.11669333 39.46723555 10.7770311 50.38990221C850.52529777 235.29016889 918.75555555 360.90083556 918.75555555 497.14289779c0 220.63786667-179.20455111 400.13368889-399.40551111 400.13368888s-399.40551111-179.49582222-399.40551111-400.13368888c0-136.16924445 68.30307555-261.85272889 182.55416888-335.98122666 16.89372445-10.92266667 21.69969778-33.56899555 10.77703112-50.46272002C302.20743111 93.73240889 279.70673777 88.92643556 262.88583111 99.92192001 127.73603555 187.66734223 47.05393777 336.14279113 47.05393777 497.14289779 47.05393777 758.04899556 258.88085333 970.24000001 519.35004444 970.24000001S991.57333333 758.04899556 991.57333333 497.14289779C991.57333333 336.06997334 910.96405333 187.59452446 775.88707555 99.99473779zM519.35004444 528.96426667c20.09770667 0 36.40888889-16.67527111 36.40888889-37.35552l0-433.26577778c0-20.60743111-16.31118222-37.28270222-36.40888889-37.28270222s-36.40888889 16.67527111-36.40888889 37.28270222l0 433.26577778C482.94115555 512.28899556 499.17951999 528.96426667 519.35004444 528.96426667z"  /></svg>