<?xml version="1.0" standalone="no"?><!DOCTYPE svg PUBLIC "-//W3C//DTD SVG 1.1//EN" "http://www.w3.org/Graphics/SVG/1.1/DTD/svg11.dtd"><svg class="icon" width="200px" height="200.00px" viewBox="0 0 1024 1024" version="1.1" xmlns="http://www.w3.org/2000/svg"><path fill="#333333" d="M849.47736534 934.49556933L282.57013333 934.49556933c-62.614579 0-113.380832-50.764174-113.38083199-113.37720999L169.18930134 707.74217233l56.69041599 0 0 113.37618701c0 31.306007 25.38415 56.688093 56.690416 56.688093l566.90723201 0c31.307289 0 56.690416-25.38311 56.69041599-56.688093l0-623.572098c0-31.306007-25.38415-56.688093-56.69041599-56.688093L282.57013333 140.85816733c-31.307289 0-56.690416 25.382087-56.690416 56.688093l0 113.37618701-56.69041599 0L169.18930134 197.54626134c0-62.612013 50.766254-113.37721 113.38083199-113.37721001l566.90723201 0c62.615602 0 113.381856 50.765197 113.381856 113.37721001l0 623.572098C962.85922134 883.73139534 912.09296733 934.49556933 849.47736534 934.49556933zM604.08564834 332.40266833c-11.044996-11.072173-11.044996-29.036313 0-40.07983399 11.071603-11.072173 29.03648-11.072173 40.109106 0l195.56592099 195.55790799c5.896532 5.89629 8.414992 13.729699 8.028166 21.45156801 0.386826 7.721869-2.131634 15.556301-8.028166 21.48021999L644.19577833 726.37146133c-11.072627 11.07115-29.037503 11.07115-40.109106 0-11.044996-11.072173-11.044996-29.036313 0-40.08085699l148.61982501-148.613736L84.15214134 537.67686834c-15.639829 0-28.34572-12.67774-28.34572001-28.344558 0-15.639189 12.70589-28.344558 28.34572001-28.344558l668.55230799 0L604.08564834 332.40266833z"  /></svg>