<?xml version="1.0" standalone="no"?><!DOCTYPE svg PUBLIC "-//W3C//DTD SVG 1.1//EN" "http://www.w3.org/Graphics/SVG/1.1/DTD/svg11.dtd"><svg class="icon" width="200px" height="200.00px" viewBox="0 0 1024 1024" version="1.1" xmlns="http://www.w3.org/2000/svg"><path fill="#333333" d="M577.33907456 244.18535879c-55.77206215 55.81048377-55.77206215 146.64645518 0 202.49652452 27.32949731 27.25265408 63.48784526 41.95420843 100.98862421 41.95420842 10.82445141 0 21.72574606-1.22833123 32.58861796-3.72341532 26.10116608-6.02639133 49.93777891-19.26908359 68.93791004-38.26921358l0.03842162-0.03842162c19.42277006-19.46119168 32.74230557-43.83454435 38.57658766-70.5504586 10.47865571-47.92238421-3.95394617-97.24658005-38.61500928-131.88785038C724.04374301 188.35508338 633.14955719 188.29803179 577.33907456 244.18535879zM741.70027805 359.28058197c-2.6487717 11.97593941-8.67516189 22.99249891-17.46442582 31.82018333-8.55989703 8.55989703-19.26908359 14.50944512-30.9760694 17.19663843-22.07037667 5.14385579-44.48771413-1.42044046-60.3395914-17.23389496-25.14178731-25.18020893-25.14178731-66.13661582 0-91.29703197 12.58952249-12.58952249 29.13415509-18.88486627 45.67762375-18.88486627s33.08693731 6.27554987 45.67762375 18.86623744C739.89678535 315.38782322 746.4214949 337.65030912 741.70027805 359.28058197z"  /><path fill="#333333" d="M1017.41466055 412.98019897l-19.88266666-266.98100508c-4.72121685-64.04437789-56.61734002-115.82407225-120.68034674-120.43002312L610.73338482 6.43281693c-48.17270784-3.45446286-96.07529927 14.25912149-130.46741106 48.67102606L55.12247182 480.22871609c-65.32975957 65.32975957-65.32975957 171.65434766 0 236.98410837l251.68566159 251.68566159c31.62807523 31.66649685 73.73597013 49.09366499 118.49263558 49.09366499 44.75550151 0 86.86339641-17.42600419 118.4926356-49.09366499L968.78205611 543.90867058C1003.28943275 509.40129394 1021.02281102 461.65122503 1017.41466055 412.98019897zM913.20093923 488.32755257L488.21112377 913.31853312c-34.69948587 34.69948587-91.12471666 34.69948587-125.82303744 0l-251.68566158-251.68566158c-34.69948587-34.69948587-34.69948587-91.12471666 0-125.82303744l425.18192469-425.14350308c16.69715513-16.73557675 39.30543673-26.04411563 62.83467549-26.04411563 2.11086677 0 4.26015517 0.07684323 6.41060864 0.23053085l266.0798407 19.13402482c25.44916139 1.82328661 46.06067712 22.37775075 47.942177 47.82691214L939.03431794 418.81448107C940.95307662 444.64669582 931.54906453 469.98059122 913.20093923 488.32755257z"  /></svg>