<?xml version="1.0" standalone="no"?><!DOCTYPE svg PUBLIC "-//W3C//DTD SVG 1.1//EN" "http://www.w3.org/Graphics/SVG/1.1/DTD/svg11.dtd"><svg class="icon" width="200px" height="200.00px" viewBox="0 0 1024 1024" version="1.1" xmlns="http://www.w3.org/2000/svg"><path fill="#333333" d="M911.22869919 644.2569336a27.61681602 27.61681602 0 0 0 39.05017805-39.07779442L533.81728458 188.68993012a27.61681602 27.61681602 0 0 0-39.07779444 0L78.22266341 605.17913918a27.61681602 27.61681602 0 1 0 39.05017934 39.07779442L484.38318398 277.14659238v649.18850499c0 15.3825672 12.37233334 27.53396558 27.61681602 27.53396557 15.35494951 0 27.61681602-12.31710057 27.61681602-27.53396557v-653.69004564l371.61188317 371.61188187zM70.13093706 97.74775309c0-15.24448269 12.56565193-27.61681602 27.61681603-27.61681603h828.50449382c15.24448269 0 27.61681602 12.26186651 27.61681603 27.61681603 0 15.24448269-12.56565193 27.61681602-27.61681603 27.61681603H97.74775309c-15.24448269 0-27.61681602-12.26186651-27.61681603-27.61681603z"  /></svg>