<?xml version="1.0" standalone="no"?><!DOCTYPE svg PUBLIC "-//W3C//DTD SVG 1.1//EN" "http://www.w3.org/Graphics/SVG/1.1/DTD/svg11.dtd"><svg class="icon" width="200px" height="200.00px" viewBox="0 0 1024 1024" version="1.1" xmlns="http://www.w3.org/2000/svg"><path fill="#333333" d="M950.90688 223.89873778l-150.7328-151.38816c-55.34151111-55.34151111-145.63555555-55.34151111-201.77806223 0l-524.288 525.38026667c-17.25781333 17.25781333-27.01539555 40.85077333-27.01539555 65.24472889l0 241.24529778c0 48.35100445 25.12213333 72.74496 72.81777778 72.74496l243.06574222-1.31072c24.39395555-0.07281778 47.76846222-9.90321778 65.02627555-27.16103112l522.97728-523.9239111C1006.97656888 369.46147557 1006.97656888 279.2402489 950.90688 223.89873778zM353.72828443 903.07015112L119.9104 904.4536889l0-232.14307556c0-4.44188445 1.38353778-8.59249778 2.54862222-12.81592889 1.60199111 4.95160889 4.07779555 9.75758222 8.00995555 13.68974222l219.69123556 219.61841778c4.07779555 4.07779555 8.95658667 6.48078222 14.0538311 8.08277333C360.7187911 901.75943112 357.36917333 903.07015112 353.72828443 903.07015112zM408.99697777 867.24380445c-0.29127111-8.44686222-3.42243555-16.82090667-9.90321777-23.30168888l-219.69123557-219.69123557c-6.04387555-6.04387555-13.68974222-8.95658667-21.55406221-9.53912888l355.13230221-355.42357334 251.65824 251.65824L408.99697777 867.24380445zM900.58979555 374.55872l-82.57536 82.72099557L566.5018311 205.69429334l83.01226667-83.08508444c27.67075555-27.67075555 72.81777778-27.59793778 100.41571556 0.07281777l150.7328 151.38816C928.33336888 301.88657778 928.2605511 346.81514667 900.58979555 374.55872z" /></svg>