<?xml version="1.0" standalone="no"?><!DOCTYPE svg PUBLIC "-//W3C//DTD SVG 1.1//EN" "http://www.w3.org/Graphics/SVG/1.1/DTD/svg11.dtd"><svg class="icon" width="200px" height="200.00px" viewBox="0 0 1024 1024" version="1.1" xmlns="http://www.w3.org/2000/svg"><path fill="#333333" d="M812.06826667 360.59946667H605.184l28.38186667-236.95253334c0.11626667-0.95786667 0.1792-1.92426667 0.192-2.88533333 0.22826667-16.1952-7.23413333-32.43946667-21.57333334-46.98026667-21.82293333-22.13226667-58.4736-38.8192-85.25333333-38.8192-27.25866667 0-52.1696 13.79306667-66.64213333 36.90026667L289.08053333 345.344c-5.97653333 9.552-16.27626667 15.25546667-27.54986666 15.25546667h-51.12746667c-90.93973333 0-164.92373333 73.984-164.92373333 164.92373333v299.6576c0 90.93546667 73.984 164.92373333 164.92373333 164.92373333h565.0144c86.4928 0 151.1264-63.25973333 164.72213333-161.58613333l36.6496-299.6576c0.1344-1.10933333 0.2016-2.224 0.2016-3.3376 0.00106667-90.93973333-73.98293333-164.92373333-164.92266666-164.92373333zM100.4544 825.1808V525.5232c0-60.62506667 49.32373333-109.9488 109.9488-109.9488h23.264v519.55626667h-23.264c-60.62506667-0.00106667-109.9488-49.32053333-109.9488-109.94986667z m785.17226667-3.7664c-7.60106667 54.97493333-40.54613333 113.71626667-110.20906667 113.71626667H288.64213333v-523.98933334c19.2224-6.2336 35.93066667-18.88213333 47.03786667-36.62826666l171.20533333-273.47733334c4.35306667-6.94826667 11.8464-11.09973333 20.04693334-11.09973333 17.66293333 0 48.912 19.7248 51.7536 29.63946667l-31.76853334 265.24053333A27.48373333 27.48373333 0 0 0 574.208 415.57333333h237.86026667c60.09706667 0 109.08586667 48.46506667 109.936 108.36586667l-36.3776 297.4752z"  /></svg>