<?xml version="1.0" standalone="no"?><!DOCTYPE svg PUBLIC "-//W3C//DTD SVG 1.1//EN" "http://www.w3.org/Graphics/SVG/1.1/DTD/svg11.dtd"><svg class="icon" width="200px" height="200.00px" viewBox="0 0 1024 1024" version="1.1" xmlns="http://www.w3.org/2000/svg"><path fill="#333333" d="M224 512a32 32 0 1 0-32 32 32 32 0 0 0 32-32z m64 0a96 96 0 1 1-96-96 96 96 0 0 1 96 96z m256 0a32 32 0 1 0-32 32 32 32 0 0 0 32-32z m64 0a96 96 0 1 1-96-96 96 96 0 0 1 96 96z m256 0a32 32 0 1 0-32 32 32 32 0 0 0 32-32z m64 0a96 96 0 1 1-96-96 96 96 0 0 1 96 96z" /></svg>