<?xml version="1.0" standalone="no"?><!DOCTYPE svg PUBLIC "-//W3C//DTD SVG 1.1//EN" "http://www.w3.org/Graphics/SVG/1.1/DTD/svg11.dtd"><svg class="icon" width="200px" height="200.00px" viewBox="0 0 1024 1024" version="1.1" xmlns="http://www.w3.org/2000/svg"><path fill="#333333" d="M912.02 122H782V62a30 30 0 1 0-60 0v60h-180V62a30 30 0 1 0-60 0v60H302V62a30 30 0 1 0-60 0v60H112.01A79.98 79.98 0 0 0 32 201.98v710.01A80.01 80.01 0 0 0 112.01 992h800.01A79.98 79.98 0 0 0 992 911.99V201.98A79.95 79.95 0 0 0 912.02 122zM932 911.99a20.01 20.01 0 0 1-19.98 20.01H112.01A20.01 20.01 0 0 1 92 911.99V201.98C92 190.97 100.97 182 112.01 182H242v60a30 30 0 1 0 60 0V182h180v60a30 30 0 1 0 60 0V182h180v60a30 30 0 1 0 60 0V182h130.02c11.01 0 19.98 8.97 19.98 19.98v710.01z"  /><path fill="#333333" d="M242 392h120v90H242zM242 542h120v90H242zM242 692h120v90H242zM452 692h120v90h-120zM452 542h120v90h-120zM452 392h120v90h-120zM662 692h120v90h-120zM662 542h120v90h-120zM662 392h120v90h-120z"  /></svg>