<?xml version="1.0" standalone="no"?><!DOCTYPE svg PUBLIC "-//W3C//DTD SVG 1.1//EN" "http://www.w3.org/Graphics/SVG/1.1/DTD/svg11.dtd"><svg class="icon" width="200px" height="198.64px" viewBox="0 0 1031 1024" version="1.1" xmlns="http://www.w3.org/2000/svg"><path fill="#333333" d="M934.86988932 286.94931642l-145.67871093 0 0 141.70166014c0 17.04199219-14.22509766 30.89794922-31.74169922 30.89794922-17.54736328 0-31.77246094-13.85595703-31.77246094-30.89794922L725.67701823 286.94931642l-145.64355469 0c-17.54296875 0-31.77685547-13.82255859-31.77685546-30.89794922 0-17.04638672 14.23388672-30.89794922 31.77685545-30.89794922l145.6435547 0L725.67701823 83.47900392c0-17.07275391 14.22509766-30.89794922 31.77246094-30.89794922 17.51660156 0 31.74169922 13.82519531 31.74169922 30.89794922L789.19117839 225.15429687l145.67871093 1e-8c17.54296875 0 31.73730469 13.8515625 31.73730468 30.89794921C966.607194 273.12675781 952.41285807 286.94931642 934.86988932 286.94931642zM472.19694011 180.30546875L172.90826823 180.30546875c-26.86376953 0-48.72216797 21.26513672-48.72216798 47.41259767l0 592.0760742c0 26.14746094 21.85839844 47.40820313 48.72216798 47.40820313l608.65839844 0c26.89013672 0 48.75292969-21.26074219 48.75292969-47.40820313L830.31959636 538.92734375c0-17.07714844 14.19433594-30.89794922 31.75048828-30.89794922 17.54296875 0 31.76367188 13.82080078 31.76367186 30.89794922l0 280.86679687c0 60.24023437-50.37890625 109.20410156-112.26708983 109.20410158L172.90826823 928.9982422c-61.88818359 0-112.24072266-48.96386719-112.24072266-109.20410157L60.66754557 227.71806642c0-60.20507813 50.35253906-109.17773438 112.24072266-109.17773439L472.19694011 118.54033203c17.54736328 0 31.78125 13.82080078 31.78125 30.86455078C503.97819011 166.48291017 489.74430339 180.30546875 472.19694011 180.30546875z"  /></svg>